<svg xmlns="http://www.w3.org/2000/svg" width="8085" height="2190" viewBox="0 0 8085 2190" version="1.1"><path d="M 2990.921 1081.560 C 2665.639 1318.369, 2397.925 1513.458, 2396 1515.092 C 2391.355 1519.036, 2336.137 1547.923, 3055 1170.342 C 3436.755 969.827, 3687.500 837.570, 3687.500 836.728 C 3687.500 835.161, 3583.827 651.071, 3582.921 651.028 C 3582.602 651.012, 3316.202 844.752, 2990.921 1081.560 M 3254.787 1182.335 C 2972.795 1296.775, 2742.242 1390.575, 2742.447 1390.780 C 2742.651 1390.985, 2755.347 1387.767, 2770.659 1383.630 C 2895.019 1350.029, 3019.272 1327.654, 3126.500 1319.552 C 3173.397 1316.009, 3229.106 1314.444, 3259.500 1315.816 L 3278.500 1316.674 3577.500 1248.789 C 3741.950 1211.453, 3877.742 1180.588, 3879.261 1180.201 L 3882.021 1179.497 3825.100 1077.171 C 3793.794 1020.892, 3768.026 974.714, 3767.840 974.554 C 3767.653 974.393, 3536.779 1067.894, 3254.787 1182.335" stroke="none" fill="#00714b" fill-rule="evenodd"/><path d="M 3227.568 24.891 C 3223.494 31.481, 2392.093 1517.426, 2392.340 1517.673 C 2392.595 1517.928, 3448.495 533.103, 3485.712 497.900 L 3492.924 491.078 3361.393 258.289 C 3289.050 130.255, 3229.493 25.123, 3229.043 24.663 C 3228.594 24.202, 3227.930 24.305, 3227.568 24.891" stroke="none" fill="#ec4334" fill-rule="evenodd"/><path d="M 7375 0.586 C 7373.625 0.744, 7364.175 1.382, 7354 2.003 C 7235.010 9.270, 7111.664 44.467, 7010.331 100.070 C 6792.150 219.791, 6649.875 429.661, 6619.561 676.500 C 6612.758 731.889, 6611.631 796.179, 6616.484 852.026 C 6638.160 1101.500, 6769.839 1312.068, 6981.500 1435.723 C 7080.098 1493.326, 7192.571 1529.907, 7314.500 1544.029 C 7375.265 1551.067, 7449.915 1551.975, 7515.500 1546.474 C 7713.418 1529.872, 7901.094 1455.699, 8056.747 1332.562 L 8071.993 1320.500 8071.997 984.750 L 8072 649 7729 649 L 7386 649 7386 800.500 L 7386 952 7533 952 L 7680 952 7680 1042.275 L 7680 1132.551 7669.750 1138.646 C 7626.050 1164.636, 7580.609 1180.260, 7525 1188.418 C 7499.148 1192.211, 7481.665 1193.323, 7446.500 1193.412 C 7404.626 1193.517, 7385.082 1191.839, 7353 1185.382 C 7250.228 1164.697, 7164.367 1108.322, 7107.971 1024.500 C 7074.911 975.362, 7052.019 914.983, 7043.139 853.500 C 7039.059 825.254, 7038.500 816.230, 7038.518 779 C 7038.537 739.872, 7039.328 729.479, 7044.645 698.500 C 7066.290 572.400, 7142.671 465.134, 7250.500 409.407 C 7301.272 383.168, 7351.569 370.612, 7411.174 369.299 C 7542.764 366.399, 7653.263 407.252, 7768.456 501.393 C 7774.043 505.959, 7778.480 508.910, 7778.982 508.393 C 7781.923 505.368, 8020.989 217.527, 8020.942 217.067 C 8020.859 216.246, 7992.861 193.250, 7977.256 181.185 C 7817.651 57.788, 7636.556 -0.692, 7416.640 0.150 C 7395.113 0.232, 7376.375 0.429, 7375 0.586 M -0 775 L -0 1521.002 604.750 1520.751 L 1209.500 1520.500 1209.753 1344.750 L 1210.006 1169 809.503 1169 L 409 1169 409 1051 L 409 933 766.500 933 L 1124 933 1124 769.500 L 1124 606 766.500 606 L 409 606 409 494 L 409 382 804.003 382 L 1199.006 382 1198.753 205.750 L 1198.500 29.500 599.250 29.249 L 0 28.998 -0 775 M 1420 775 L 1420 1521 1626.500 1521 L 1833 1521 1833 1308 L 1833 1095 1939.750 1094.991 C 2069.476 1094.979, 2097.110 1094.168, 2146.500 1088.926 C 2280.778 1074.672, 2397.934 1032.408, 2485.500 966.633 C 2537.693 927.428, 2580.109 880.137, 2611.209 826.475 C 2643.170 771.327, 2664.198 707.799, 2673.078 639.559 C 2679.574 589.636, 2679.767 524.722, 2673.564 475.905 C 2663.909 399.915, 2640.145 332.044, 2602.335 272.475 C 2571.423 223.773, 2527.945 178.624, 2478.482 143.859 C 2388.654 80.726, 2274.824 43.558, 2137.500 32.521 C 2099.818 29.492, 2047.738 29.040, 1734.750 29.020 L 1420 29 1420 775 M 4207 775 L 4207 1521 4409.499 1521 L 4611.998 1521 4612.249 1095.705 L 4612.500 670.409 4801.435 959.205 L 4990.370 1248 4994.935 1247.990 L 4999.500 1247.981 5189.500 957.079 L 5379.500 666.178 5379.751 1093.591 L 5380.002 1521.005 5585.751 1520.752 L 5791.500 1520.500 5791.500 775 L 5791.500 29.500 5573.288 29.248 L 5355.075 28.995 5352.788 32.388 C 5351.529 34.253, 5271.525 164.037, 5175 320.796 C 5039.072 541.547, 4999.256 605.504, 4998.417 604.443 C 4997.821 603.690, 4917.733 473.907, 4820.443 316.037 L 4643.552 29 4425.276 29 L 4207 29 4207 775 M 6001.463 30.250 C 6001.202 30.938, 6001.104 366.525, 6001.244 776 L 6001.500 1520.500 6209.250 1520.752 L 6417 1521.005 6417 775.002 L 6417 29 6209.469 29 C 6044.363 29, 6001.840 29.256, 6001.463 30.250 M 1833 573.414 L 1833 770 1941.871 770 C 2059.487 770, 2064.780 769.808, 2094 764.487 C 2161.242 752.242, 2210.978 720.989, 2239.881 672.819 C 2261.125 637.413, 2269.011 590.906, 2262.401 540 C 2255.359 485.755, 2228.110 442.349, 2183.812 414.812 C 2153.782 396.143, 2116.433 384.608, 2069 379.350 C 2056.848 378.003, 2036.567 377.669, 1943.750 377.286 L 1833 376.829 1833 573.414 M 3734.820 1313.352 C 3622.796 1330.483, 3530.909 1344.737, 3530.626 1345.028 C 3530.343 1345.318, 3540.774 1347.714, 3553.806 1350.352 C 3715.943 1383.176, 3898.727 1441.397, 4050.857 1508.675 C 4062.603 1513.870, 4072.376 1517.957, 4072.575 1517.759 C 4073.126 1517.207, 3940.341 1282.599, 3939.358 1282.388 C 3938.886 1282.286, 3846.844 1296.220, 3734.820 1313.352 M 6988.214 1685.750 C 6975.272 1704.262, 6935 1764.235, 6935 1764.995 C 6935 1765.628, 6940.829 1765.981, 6950.750 1765.950 L 6966.500 1765.899 6998 1726.437 C 7015.325 1704.733, 7030.117 1686.081, 7030.872 1684.988 C 7032.228 1683.024, 7031.994 1683, 7011.190 1683 L 6990.136 1683 6988.214 1685.750 M 2111.718 1696.037 C 2105.983 1697.470, 2102.724 1699.456, 2098.578 1704.046 C 2093.446 1709.726, 2091.735 1714.252, 2091.719 1722.189 C 2091.687 1738.503, 2104.157 1750.064, 2120.381 1748.762 C 2127.939 1748.155, 2133.438 1745.472, 2138.415 1739.962 C 2143.428 1734.413, 2145.144 1729.988, 2145.187 1722.497 C 2145.228 1715.448, 2142.560 1708.258, 2138.196 1703.657 C 2132.151 1697.282, 2120.340 1693.884, 2111.718 1696.037 M 7640.718 1696.037 C 7634.936 1697.482, 7631.782 1699.428, 7627.248 1704.346 C 7616.540 1715.964, 7618.400 1734.757, 7631.173 1744.011 C 7636.558 1747.911, 7642.081 1749.336, 7649.529 1748.744 C 7663.976 1747.598, 7673.929 1736.688, 7673.978 1721.946 C 7674.015 1710.887, 7668.437 1702.322, 7658.249 1697.795 C 7653.072 1695.494, 7645.803 1694.765, 7640.718 1696.037 M 0 1890.426 L 0 2070 21 2070 L 42 2070 42 2002.652 L 42 1935.304 74.250 1934.673 C 91.988 1934.326, 109.875 1933.584, 114 1933.025 C 131.975 1930.590, 152.485 1923.766, 165.655 1915.840 C 189.658 1901.395, 208.435 1876.505, 215.701 1849.500 C 218.223 1840.129, 218.394 1838.149, 218.419 1818 C 218.450 1794.092, 217.463 1788.185, 210.675 1771.631 C 199.877 1745.297, 176.021 1725.310, 145.343 1716.893 C 126.917 1711.838, 126.045 1711.780, 61.250 1711.303 L 0 1710.851 0 1890.426 M 3500.500 1883.181 C 3464.200 1977.869, 3433.275 2058.639, 3431.777 2062.670 L 3429.055 2070 3452.777 2069.992 L 3476.500 2069.984 3494.139 2020.242 L 3511.779 1970.500 3587.742 1970.244 L 3663.705 1969.988 3682.587 2019.994 L 3701.470 2070 3724.852 2070 L 3748.233 2070 3747.649 2067.750 C 3747.328 2066.512, 3716.368 1985.737, 3678.848 1888.250 L 3610.632 1711 3588.566 1711.011 L 3566.500 1711.022 3500.500 1883.181 M 42 1823.112 L 42 1896.224 73.750 1895.723 C 100.443 1895.302, 106.937 1894.906, 114.522 1893.236 C 140.260 1887.569, 157.169 1875.660, 166.528 1856.608 C 172.392 1844.669, 174.210 1835.841, 174.167 1819.500 C 174.109 1797.484, 168.925 1782.752, 157.079 1770.939 C 149.469 1763.349, 142.641 1759.200, 131.752 1755.549 C 118.260 1751.026, 107.561 1750.012, 73.250 1750.006 L 42 1750 42 1823.112 M 3585.368 1765.833 C 3584.069 1771.725, 3572.393 1805.177, 3555.467 1851.500 C 3540.193 1893.300, 3527.487 1928.287, 3527.232 1929.250 C 3526.793 1930.903, 3530.167 1931, 3587.883 1931 C 3621.498 1931, 3649 1930.754, 3649 1930.452 C 3649 1930.151, 3636.220 1895.164, 3620.600 1852.702 C 3602.951 1804.725, 3591.438 1771.968, 3590.187 1766.170 C 3589.079 1761.038, 3588.022 1756.688, 3587.837 1756.503 C 3587.651 1756.318, 3586.541 1760.517, 3585.368 1765.833 M 503.097 1808.119 C 482.234 1809.953, 462.674 1817.536, 446.349 1830.120 C 439.055 1835.742, 425.138 1850.421, 420.388 1857.502 C 401.055 1886.318, 393.115 1922.093, 397.066 1962.576 C 400.564 1998.415, 410.769 2023.348, 430.238 2043.628 C 452.552 2066.871, 482.441 2077.365, 521.500 2075.673 C 551.664 2074.366, 577.449 2067.303, 596.234 2055.203 L 601.983 2051.500 601.991 2031.718 L 602 2011.935 596.750 2015.821 C 563.197 2040.654, 516.060 2047.821, 484.107 2032.947 C 459.213 2021.360, 443.468 1997.164, 440.540 1966 C 440.204 1962.425, 439.715 1957.813, 439.453 1955.750 L 438.976 1952 529.619 1952 L 620.261 1952 619.720 1930.250 C 619.010 1901.694, 616.640 1887.858, 609.142 1868.491 C 600.873 1847.137, 584.047 1828.083, 565 1818.505 C 548.109 1810.011, 525.233 1806.173, 503.097 1808.119 M 903.633 1808.108 C 863.393 1811.365, 830.758 1832.497, 821.363 1861.383 C 819.107 1868.319, 818.713 1871.318, 818.657 1882 C 818.550 1902.564, 822.917 1913.912, 835.990 1927.044 C 847.695 1938.801, 859.178 1945.089, 897.097 1960.503 C 919.613 1969.657, 926.939 1973.789, 935.151 1981.970 C 940.457 1987.255, 942.126 1989.685, 943.401 1993.979 C 945.645 2001.534, 945.448 2010.727, 942.897 2017.544 C 937.744 2031.319, 925.774 2037.910, 902.077 2040.021 C 874.663 2042.463, 848.780 2035.891, 824.731 2020.381 L 817.962 2016.016 818.231 2038.573 L 818.500 2061.130 826.170 2064.512 C 834.555 2068.209, 848.275 2072.120, 860 2074.155 C 872.326 2076.295, 904.317 2075.778, 916.645 2073.239 C 938.344 2068.771, 954.083 2061.366, 966.517 2049.778 C 980.311 2036.920, 986.755 2023.144, 987.694 2004.500 C 988.334 1991.795, 986.426 1982.317, 981.025 1971.359 C 977.779 1964.775, 975.456 1961.755, 968.877 1955.566 C 956.370 1943.800, 943.508 1936.806, 909 1923.005 C 881.461 1911.991, 872.216 1906.389, 865.942 1896.912 C 858.577 1885.788, 859.584 1869.481, 868.293 1858.819 C 884.889 1838.502, 932.275 1837.426, 967.750 1856.560 L 976 1861.010 976 1840.019 L 976 1819.027 972.250 1817.448 C 954.996 1810.183, 926.285 1806.274, 903.633 1808.108 M 1291.266 1808.072 C 1264.551 1810.124, 1240.980 1820.850, 1222.977 1839.145 C 1204.818 1857.600, 1193.048 1881.853, 1187.377 1912.500 C 1184.762 1926.633, 1184.724 1968.312, 1187.314 1981.500 C 1191.353 2002.067, 1199.558 2022.306, 1209.030 2035.069 C 1218.191 2047.413, 1231.922 2059.429, 1243.500 2065.234 C 1275.203 2081.131, 1321.264 2078.835, 1349.038 2059.974 C 1357.874 2053.974, 1367.573 2044.008, 1373.775 2034.555 L 1378.988 2026.611 1379.244 2107.055 L 1379.500 2187.500 1400.250 2187.770 L 1421 2188.041 1421 2000.500 L 1421 1812.959 1400.250 1813.230 L 1379.500 1813.500 1379.226 1830.950 L 1378.951 1848.401 1375.581 1843.396 C 1370.907 1836.456, 1362.775 1827.739, 1357.061 1823.545 C 1346.363 1815.692, 1330.565 1809.802, 1316.752 1808.519 C 1304.188 1807.351, 1301.310 1807.301, 1291.266 1808.072 M 2444 1808.084 C 2400.269 1811.424, 2366.970 1834.513, 2359.381 1866.757 C 2357.206 1875.996, 2357.966 1894.920, 2360.879 1904.072 C 2364.956 1916.882, 2374.505 1928.539, 2388.448 1937.727 C 2397.191 1943.488, 2415.015 1952.004, 2433.779 1959.385 C 2441.633 1962.473, 2451.373 1966.574, 2455.425 1968.496 C 2468.557 1974.728, 2478.858 1983.876, 2482.748 1992.760 C 2484.765 1997.368, 2484.926 2010.771, 2483.033 2016.500 C 2478.476 2030.287, 2465.496 2037.818, 2442.622 2039.947 C 2413.177 2042.687, 2387.571 2035.844, 2360.250 2017.934 L 2357 2015.804 2357 2038.268 L 2357 2060.732 2363.802 2063.773 C 2372.842 2067.816, 2385.365 2071.551, 2397 2073.675 C 2410.043 2076.056, 2440.846 2076.083, 2453.636 2073.724 C 2484.447 2068.042, 2505.884 2055.185, 2518.849 2034.609 C 2527.569 2020.770, 2529.936 1995.708, 2524.117 1978.828 C 2516.493 1956.714, 2497.833 1942.721, 2451 1923.999 C 2423.968 1913.193, 2417.846 1909.939, 2410.367 1902.402 C 2403.040 1895.019, 2400.889 1889.658, 2400.889 1878.787 C 2400.889 1856.604, 2420.262 1842.992, 2451.815 1843.004 C 2473.463 1843.012, 2495.613 1848.787, 2510.820 1858.386 C 2513.097 1859.824, 2515.203 1861, 2515.500 1861 C 2515.797 1861, 2515.918 1851.500, 2515.770 1839.888 L 2515.500 1818.777 2509 1816.394 C 2490.406 1809.578, 2465.730 1806.424, 2444 1808.084 M 2821.243 1808.072 C 2799.117 1809.515, 2775.016 1816.335, 2756.750 1826.321 L 2748 1831.105 2748 1852.636 L 2748 1874.167 2750.750 1872.028 C 2775.841 1852.511, 2801.940 1843, 2830.403 1843 C 2857.866 1843, 2874.208 1854.898, 2880.478 1879.458 C 2882.032 1885.544, 2884.332 1906.002, 2883.550 1906.783 C 2883.312 1907.021, 2864.304 1909.855, 2841.309 1913.080 C 2818.314 1916.306, 2796.350 1919.696, 2792.500 1920.613 C 2755.506 1929.432, 2734.255 1947.175, 2725.950 1976.179 C 2723.032 1986.367, 2722.215 2006.671, 2724.287 2017.500 C 2728.660 2040.360, 2741.339 2057.237, 2761.500 2067.032 C 2781.201 2076.605, 2810.792 2078.572, 2833 2071.786 C 2851.850 2066.027, 2870.814 2051.079, 2880.780 2034.126 L 2883.500 2029.500 2883.771 2049.750 L 2884.041 2070 2905.021 2070 L 2926 2070 2925.971 1987.250 C 2925.955 1941.737, 2925.529 1898.859, 2925.024 1891.966 C 2923.909 1876.736, 2921.784 1865.993, 2917.880 1855.856 C 2904.309 1820.614, 2872.221 1804.748, 2821.243 1808.072 M 4035.266 1808.072 C 4018.188 1809.384, 4001.884 1814.412, 3987.687 1822.745 C 3977.650 1828.637, 3961.329 1844.441, 3954.499 1854.883 C 3939.789 1877.371, 3931.836 1903.742, 3930.160 1935.588 C 3927.839 1979.684, 3935.861 2011.769, 3955.716 2037.795 C 3975.549 2063.793, 4006.940 2077.701, 4041.102 2075.626 C 4062.856 2074.305, 4079.047 2069.384, 4093.500 2059.700 C 4101.117 2054.597, 4114.604 2041.072, 4119.632 2033.497 L 4123.500 2027.669 4123.800 2046.584 C 4124.273 2076.498, 4121.212 2094.825, 4112.943 2111.583 C 4100.267 2137.273, 4077.197 2151.070, 4042.172 2153.906 C 4013.905 2156.195, 3985.523 2149.871, 3954.939 2134.469 C 3951.150 2132.561, 3947.814 2131, 3947.525 2131 C 3947.236 2131, 3947 2140.213, 3947 2151.474 L 3947 2171.949 3950.100 2173.552 C 3956.308 2176.762, 3970.754 2181.903, 3980.533 2184.382 C 3998.471 2188.929, 4012.958 2190.283, 4037 2189.660 C 4065.423 2188.924, 4081.938 2185.632, 4100.701 2176.963 C 4138.560 2159.473, 4159.323 2125.815, 4164.967 2072.789 C 4165.621 2066.644, 4166 2017.158, 4166 1938.019 L 4166 1812.959 4145.250 1813.230 L 4124.500 1813.500 4124 1830.982 L 4123.500 1848.464 4120.261 1843.412 C 4116.394 1837.380, 4104.287 1825.445, 4098 1821.467 C 4086.619 1814.267, 4073.489 1809.703, 4060.752 1808.519 C 4048.188 1807.351, 4045.310 1807.301, 4035.266 1808.072 M 4830.422 1808.031 C 4797.219 1810.297, 4770.020 1821.865, 4749.478 1842.458 C 4745.067 1846.881, 4739.389 1853.425, 4736.860 1857 C 4722.995 1876.607, 4714.783 1902.361, 4713.156 1931.338 C 4710.591 1977.032, 4721.139 2012.029, 4745.554 2038.838 C 4771.568 2067.401, 4811.693 2080.258, 4857.038 2074.560 C 4897.788 2069.439, 4929.024 2048.678, 4948.150 2014 C 4970.025 1974.338, 4970.611 1908.867, 4949.466 1867 C 4932.619 1833.644, 4898.704 1811.368, 4860.443 1808.529 C 4844.436 1807.341, 4841.289 1807.289, 4830.422 1808.031 M 5302 1808.123 C 5284.698 1809.545, 5268.308 1815.277, 5254.294 1824.805 C 5247.023 1829.750, 5236.711 1840.018, 5230.931 1848.070 C 5222.240 1860.177, 5223.071 1861.474, 5223.033 1835.750 L 5223 1813 5202.500 1813 L 5182 1813 5182 2000.500 L 5182 2188 5202.494 2188 L 5222.988 2188 5223.244 2110.272 L 5223.500 2032.545 5228.138 2039.022 C 5237.082 2051.512, 5250.503 2062.709, 5263.323 2068.379 C 5284.194 2077.610, 5314.584 2078.167, 5339.607 2069.778 C 5377.828 2056.964, 5404.267 2023.313, 5413.911 1975.206 C 5417.047 1959.562, 5418.410 1936.030, 5417.126 1919.725 C 5414.787 1890.045, 5408.415 1869.533, 5395.432 1849.892 C 5375.255 1819.368, 5342.630 1804.783, 5302 1808.123 M 5728.500 1807.656 C 5680.099 1810.698, 5640.486 1842.625, 5624.552 1891.436 C 5618.978 1908.514, 5617.503 1919.570, 5617.544 1944 C 5617.583 1968.153, 5618.769 1978.027, 5623.662 1994.944 C 5635.978 2037.532, 5663.800 2064.203, 5705.281 2073.188 C 5713.944 2075.065, 5718.545 2075.398, 5735.500 2075.379 C 5769.063 2075.342, 5793.345 2069.529, 5815.250 2056.287 L 5823 2051.602 5823 2031.779 L 5823 2011.955 5815.250 2017.383 C 5792.996 2032.969, 5769.776 2040.319, 5743 2040.253 C 5716.154 2040.186, 5696.789 2032.547, 5682.004 2016.190 C 5669.708 2002.586, 5662.757 1984.213, 5660.463 1959.250 L 5659.797 1952 5750.399 1952 L 5841 1952 5840.991 1940.750 C 5840.971 1914.492, 5838.310 1893.248, 5833.009 1877.028 C 5827.178 1859.185, 5819.571 1846.493, 5807.518 1834.500 C 5795.487 1822.528, 5782.368 1815.238, 5765.286 1811.033 C 5754.988 1808.498, 5738.780 1807.010, 5728.500 1807.656 M 6156.875 1808.079 C 6121.773 1810.518, 6091.836 1824.462, 6070.848 1848.148 C 6049.936 1871.748, 6039.419 1898.686, 6037.051 1934.718 C 6033.865 1983.168, 6048.439 2022.654, 6079 2048.374 C 6097.732 2064.139, 6117.262 2072.202, 6143.684 2075.079 C 6170.511 2078.001, 6203.833 2072.195, 6223.281 2061.210 L 6228.500 2058.263 6228.771 2038.631 C 6228.920 2027.834, 6228.822 2019, 6228.552 2019 C 6228.283 2019, 6224.858 2021.073, 6220.941 2023.607 C 6182.249 2048.636, 6133.040 2045.737, 6104.684 2016.758 C 6086.864 1998.546, 6077.610 1969.620, 6079.330 1937.500 C 6081.495 1897.049, 6099.679 1865.867, 6129.500 1851.470 C 6142.089 1845.391, 6148.269 1843.955, 6164.500 1843.334 C 6176.049 1842.892, 6180.165 1843.143, 6188.013 1844.771 C 6199.520 1847.157, 6210.968 1851.615, 6220.877 1857.568 C 6224.934 1860.006, 6228.655 1862, 6229.147 1862 C 6229.652 1862, 6229.923 1852.972, 6229.770 1841.250 L 6229.500 1820.500 6223.584 1817.682 C 6207.892 1810.208, 6181.309 1806.381, 6156.875 1808.079 M 6963.500 1808.038 C 6941.138 1809.550, 6918.685 1815.729, 6900.500 1825.375 L 6890.500 1830.679 6890.230 1852.413 L 6889.961 1874.147 6895.730 1869.732 C 6910.148 1858.699, 6926.128 1850.932, 6943.915 1846.311 C 6956.973 1842.918, 6977.512 1842.022, 6988.097 1844.382 C 7010.866 1849.460, 7023.450 1868.029, 7025.249 1899.204 C 7025.690 1906.843, 7025.672 1906.913, 7023.097 1907.429 C 7021.669 1907.715, 7002.500 1910.454, 6980.500 1913.515 C 6958.500 1916.576, 6936.225 1920.158, 6931 1921.474 C 6893.065 1931.029, 6871.243 1952.424, 6865.974 1985.227 C 6864.172 1996.446, 6865.171 2016.568, 6867.973 2025.500 C 6877.490 2055.837, 6902.388 2073.405, 6939 2075.618 C 6974.672 2077.774, 7002.635 2064.219, 7021.585 2035.585 L 7025.500 2029.669 7025.771 2049.855 L 7026.042 2070.040 7046.771 2069.770 L 7067.500 2069.500 7067.796 1991.500 C 7068.182 1889.697, 7067.326 1875.685, 7059.441 1854.896 C 7051.013 1832.673, 7032.980 1817.327, 7008 1811.120 C 7001.252 1809.443, 6977.269 1806.567, 6975 1807.163 C 6974.725 1807.235, 6969.550 1807.629, 6963.500 1808.038 M 7980.442 1808.085 C 7955.669 1809.875, 7929.041 1818.111, 7910.803 1829.624 L 7907 1832.025 7907 1852.346 C 7907 1863.522, 7907.267 1872.934, 7907.593 1873.260 C 7907.920 1873.586, 7911.772 1871.195, 7916.154 1867.946 C 7938.106 1851.669, 7963.823 1842.978, 7989.926 1843.015 C 8008.090 1843.040, 8018.767 1846.831, 8027.915 1856.504 C 8037.044 1866.157, 8041.573 1878.502, 8042.862 1897.249 L 8043.532 1906.997 8040.516 1907.521 C 8038.857 1907.809, 8019.725 1910.529, 7998 1913.564 C 7976.275 1916.599, 7954 1920.210, 7948.500 1921.588 C 7914.050 1930.219, 7893.352 1948.556, 7885.390 1977.500 C 7882.918 1986.487, 7882.367 2009.602, 7884.387 2019.586 C 7886.388 2029.476, 7893.292 2043.685, 7899.535 2050.763 C 7905.272 2057.266, 7914.695 2064.080, 7923.428 2068.040 C 7947.212 2078.824, 7982.633 2078.276, 8005.446 2066.772 C 8018.136 2060.372, 8031.054 2048.698, 8039.080 2036.376 L 8043.500 2029.589 8043.771 2049.794 L 8044.041 2070 8064.521 2070 L 8085 2070 8084.994 1979.250 C 8084.988 1882.380, 8084.814 1878.353, 8079.967 1862.500 C 8077.199 1853.448, 8070.272 1840.368, 8064.829 1833.912 C 8055.953 1823.386, 8041.712 1815.027, 8026 1811.121 C 8018.998 1809.381, 7996.220 1806.686, 7992.500 1807.159 C 7991.950 1807.228, 7986.524 1807.645, 7980.442 1808.085 M 4496.209 1810.460 C 4484.436 1813.138, 4470.522 1821.252, 4462.525 1830.104 C 4456.708 1836.543, 4449.410 1848.360, 4445.808 1857.172 L 4442.500 1865.267 4442.233 1839.133 L 4441.967 1813 4420.983 1813 L 4400 1813 4400 1941.500 L 4400 2070 4421 2070 L 4442 2070 4442.020 1998.750 C 4442.035 1942.530, 4442.341 1925.285, 4443.472 1917 C 4446.771 1892.835, 4454.116 1876.297, 4467.575 1862.730 C 4478.101 1852.119, 4488.887 1847.769, 4504.429 1847.864 C 4515.260 1847.930, 4521.548 1849.165, 4528.287 1852.550 C 4530.969 1853.898, 4533.352 1855, 4533.582 1855 C 4533.812 1855, 4534 1845.380, 4534 1833.622 L 4534 1812.243 4529.750 1811.063 C 4522.904 1809.163, 4503.452 1808.813, 4496.209 1810.460 M 7391.601 1810.578 C 7369.455 1815.533, 7349.065 1835.174, 7340.394 1859.903 L 7338.500 1865.305 7338 1839.403 L 7337.500 1813.500 7316.750 1813.230 L 7296 1812.959 7296 1941.480 L 7296 2070 7317 2070 L 7338 2070 7338 1997.378 C 7338 1916.624, 7338.300 1911.768, 7344.395 1893.824 C 7353.120 1868.135, 7371.355 1850.534, 7391.653 1848.205 C 7402.514 1846.959, 7414.903 1848.483, 7422.715 1852.025 C 7426.324 1853.661, 7429.439 1855, 7429.638 1855 C 7429.837 1855, 7430 1845.380, 7430 1833.622 L 7430 1812.243 7425.750 1811.063 C 7418.649 1809.092, 7399.459 1808.819, 7391.601 1810.578 M 1650.252 1902.250 C 1650.559 1982.502, 1650.771 1992.395, 1652.352 2000.374 C 1660.006 2038.997, 1677.329 2061.321, 1707 2070.796 C 1719.311 2074.727, 1725.064 2075.491, 1741.500 2075.374 C 1755.191 2075.276, 1758.884 2074.894, 1767.089 2072.728 C 1788.489 2067.079, 1804.808 2054.774, 1817.724 2034.549 L 1820.949 2029.500 1820.974 2049.750 L 1821 2070 1842 2070 L 1863 2070 1863 1941.480 L 1863 1812.959 1842.250 1813.230 L 1821.500 1813.500 1820.973 1896.500 C 1820.451 1978.683, 1820.423 1979.576, 1818.207 1987.256 C 1813.631 2003.116, 1807.450 2013.608, 1796.830 2023.542 C 1784.445 2035.128, 1770.785 2040.288, 1752.500 2040.288 C 1715.724 2040.288, 1695.919 2018.884, 1692.029 1974.934 C 1691.458 1968.479, 1691.013 1930.733, 1691.009 1888.250 L 1691 1813 1670.455 1813 L 1649.910 1813 1650.252 1902.250 M 2097 1941.480 L 2097 2070 2118.004 2070 L 2139.008 2070 2138.754 1941.750 L 2138.500 1813.500 2117.750 1813.230 L 2097 1812.959 2097 1941.480 M 6437.284 1903.250 C 6437.696 2003.091, 6437.513 2000.067, 6444.372 2020.158 C 6456.305 2055.112, 6480.990 2073.078, 6520.598 2075.634 C 6539.594 2076.860, 6561.036 2072.382, 6575 2064.274 C 6583.256 2059.481, 6598.397 2044.487, 6603.552 2036 L 6607.500 2029.500 6607.771 2049.750 L 6608.041 2070 6629.024 2070 L 6650.008 2070 6649.754 1941.750 L 6649.500 1813.500 6628.750 1813.230 L 6608 1812.959 6607.994 1890.730 C 6607.988 1974.465, 6607.680 1980.525, 6602.748 1994.114 C 6596.211 2012.123, 6583.745 2026.730, 6568.870 2033.811 C 6557.882 2039.041, 6551.700 2040.393, 6539 2040.342 C 6520.649 2040.269, 6508.697 2035.828, 6497.904 2025.073 C 6487.291 2014.498, 6481.393 1999.713, 6479.042 1977.789 C 6478.412 1971.920, 6478 1937.410, 6478 1890.539 L 6478 1813 6457.455 1813 L 6436.911 1813 6437.284 1903.250 M 7626 1941.500 L 7626 2070 7646.500 2070 L 7667 2070 7667 1941.500 L 7667 1813 7646.500 1813 L 7626 1813 7626 1941.500 M 498 1844.463 C 469.025 1851.091, 446.437 1878.132, 440.539 1913.250 L 439.909 1917 508.455 1917 L 577 1917 576.996 1912.250 C 576.990 1904.899, 574.265 1889.822, 571.633 1882.570 C 562.253 1856.729, 541.793 1842.816, 513.590 1843.102 C 508.041 1843.159, 501.025 1843.771, 498 1844.463 M 1288.589 1844.583 C 1256.339 1851.783, 1234.683 1879.888, 1228.938 1922 C 1227.200 1934.738, 1227.472 1960.715, 1229.460 1972 C 1234.353 1999.770, 1246.710 2019.541, 1266.694 2031.575 C 1282.931 2041.352, 1306.435 2043.253, 1327.770 2036.513 C 1350.378 2029.371, 1368.581 2008.699, 1376.213 1981.500 C 1378.350 1973.884, 1378.459 1971.749, 1378.479 1937 L 1378.500 1900.500 1375.776 1892.500 C 1371.841 1880.946, 1366.604 1872.610, 1357.503 1863.412 C 1348.686 1854.501, 1340.620 1849.477, 1329.500 1845.968 C 1320.181 1843.028, 1298.799 1842.304, 1288.589 1844.583 M 4037 1844.010 C 4006.148 1849.325, 3983.717 1873.741, 3975.925 1910.492 C 3969.931 1938.767, 3971.506 1970.949, 3979.948 1992.692 C 3988.260 2014.098, 4005.252 2031.222, 4024 2037.086 C 4038.001 2041.465, 4055.739 2041.594, 4070.059 2037.420 C 4094.246 2030.369, 4114.170 2008.199, 4121.212 1980.500 C 4123.384 1971.956, 4123.500 1969.702, 4123.500 1936 L 4123.500 1900.500 4120.692 1892.500 C 4111.939 1867.560, 4092.341 1849.410, 4068.821 1844.462 C 4061.532 1842.929, 4044.668 1842.689, 4037 1844.010 M 4823.831 1843.959 C 4815.198 1845.534, 4807.550 1848.156, 4799.500 1852.301 C 4789.065 1857.674, 4775.417 1871.089, 4769.286 1882 C 4764.233 1890.992, 4758.771 1907.320, 4756.909 1919 C 4755.142 1930.082, 4755.131 1955.222, 4756.888 1966 C 4761.800 1996.123, 4777.168 2019.486, 4799.872 2031.342 C 4822.587 2043.203, 4855.796 2043.702, 4878.500 2032.523 C 4899.564 2022.151, 4913.014 2003.025, 4919.234 1974.596 C 4921.153 1965.826, 4921.440 1961.545, 4921.422 1942 C 4921.405 1922.447, 4921.106 1918.125, 4919.141 1909 C 4912.017 1875.917, 4893.448 1853.902, 4865.984 1845.977 C 4860.200 1844.309, 4855.092 1843.737, 4843.500 1843.463 C 4835.250 1843.268, 4826.399 1843.491, 4823.831 1843.959 M 5283.500 1844.636 C 5261.662 1849.230, 5242.692 1865.289, 5232.089 1888.156 C 5225.311 1902.776, 5223.074 1917.421, 5223.025 1947.500 C 5222.962 1985.984, 5228.044 2001.985, 5246.102 2020.156 C 5253.363 2027.463, 5256.167 2029.515, 5264.102 2033.329 C 5275.769 2038.937, 5282.470 2040.378, 5296.500 2040.295 C 5326.797 2040.118, 5348.476 2026.292, 5362.039 1998.500 C 5369.974 1982.241, 5373.662 1965.721, 5374.654 1942 C 5376.884 1888.676, 5356.530 1852.858, 5319.303 1844.597 C 5310.353 1842.611, 5293.034 1842.630, 5283.500 1844.636 M 5718.462 1844.473 C 5700.127 1848.465, 5683.406 1861.751, 5672.481 1881.010 C 5668.410 1888.187, 5662.523 1904.871, 5661.458 1912.250 L 5660.773 1917 5729.386 1917 L 5798 1917 5797.994 1913.250 C 5797.984 1907.040, 5795.224 1890.871, 5793.156 1884.908 C 5787.822 1869.529, 5778.096 1856.948, 5766.549 1850.490 C 5754.135 1843.548, 5734.182 1841.051, 5718.462 1844.473 M 2848 1945.489 C 2812.107 1950.673, 2808.051 1951.416, 2798.234 1954.610 C 2774.610 1962.297, 2765.949 1973.672, 2765.956 1997 C 2765.959 2007.456, 2767.416 2013.530, 2771.454 2019.927 C 2777.316 2029.213, 2787.644 2036.382, 2799 2039.049 C 2806.843 2040.890, 2824.117 2040.643, 2831.872 2038.578 C 2845.804 2034.869, 2858.070 2026.891, 2867.130 2015.645 C 2873.470 2007.774, 2877.368 2000.169, 2880.543 1989.473 C 2882.909 1981.502, 2883.266 1978.294, 2883.740 1960.750 L 2884.274 1941 2880.887 1941.115 C 2879.024 1941.178, 2864.225 1943.146, 2848 1945.489 M 6986.500 1945.973 C 6949.803 1951.268, 6941.273 1953.230, 6929.288 1959.130 C 6915.942 1965.701, 6910.009 1974.226, 6908.103 1989.573 C 6905.545 2010.170, 6913.118 2026.121, 6929.500 2034.638 C 6937.730 2038.917, 6944.662 2040.346, 6957 2040.308 C 6976.164 2040.248, 6991.015 2034.134, 7004 2020.959 C 7020.440 2004.278, 7025.971 1987.501, 7025.992 1954.250 L 7026 1941 7022.750 1941.106 C 7020.962 1941.164, 7004.650 1943.354, 6986.500 1945.973 M 8004.500 1945.966 C 7969.223 1951.064, 7959.904 1953.136, 7948.452 1958.427 C 7934.696 1964.783, 7928.117 1973.826, 7925.958 1989.347 C 7923.094 2009.941, 7931.091 2026.492, 7948 2034.968 C 7955.687 2038.820, 7962.885 2040.302, 7973.967 2040.312 C 7986.605 2040.323, 7993.622 2038.749, 8004.730 2033.411 C 8019.361 2026.379, 8031.774 2012.816, 8037.964 1997.096 C 8041.630 1987.787, 8043.098 1978.120, 8043.713 1959.250 L 8044.308 1941 8040.904 1941.098 C 8039.032 1941.152, 8022.650 1943.343, 8004.500 1945.966" stroke="none" fill="currentColor" fill-rule="evenodd"/></svg>